<svg width="39" height="38" viewBox="0 0 39 38" fill="none" xmlns="http://www.w3.org/2000/svg">
<path fill-rule="evenodd" clip-rule="evenodd" d="M38 1H1V37H38V1ZM0 0V38H39V0H0Z" fill="black"/>
<path fill-rule="evenodd" clip-rule="evenodd" d="M22.2688 29.905L8.84298 28.4918C8.0191 28.405 7.42152 27.6668 7.50824 26.843L8.92149 13.4172C9.00821 12.5933 9.7464 11.9957 10.5703 12.0824C11.3941 12.1691 11.9917 12.9073 11.905 13.7312L10.8709 23.5556L29.0562 8.83413L30.9438 11.1659L12.7585 25.8873L22.5829 26.9215C23.4067 27.0082 24.0043 27.7464 23.9176 28.5703C23.8309 29.3941 23.0927 29.9917 22.2688 29.905Z" fill="black"/>
</svg>
